<svg id="Capa_1" enable-background="new 0 0 512 512" height="512" viewBox="0 0 512 512" width="512" xmlns="http://www.w3.org/2000/svg"><g id="XMLID_6429_"><path id="XMLID_2036_" d="m319.73 33.444c0-8.612-6.982-15.594-15.594-15.594h-84.606c-8.612 0-15.594 6.982-15.594 15.594s6.982 15.594 15.594 15.594h69.013v25.372h-34.709c-8.612 0-15.594 6.982-15.594 15.594v48.638c0 8.612 6.982 15.594 15.594 15.594s15.594-6.982 15.594-15.594v-33.045h34.709c8.612 0 15.594-6.982 15.594-15.594v-56.559z" fill="#46f8ff"/><path id="XMLID_2035_" d="m219.53 17.85c-8.612 0-15.594 6.982-15.594 15.594s6.982 15.594 15.594 15.594h36.398v-31.188z" fill="#bdfdff"/><g id="XMLID_6430_"><path id="XMLID_2034_" d="m253.834 74.409c-8.612 0-15.594 6.982-15.594 15.594v48.638c0 8.612 6.982 15.594 15.594 15.594.712 0 1.407-.064 2.093-.157v-79.669z" fill="#bdfdff"/><path id="XMLID_2033_" d="m294.039 466.701h-86.121v-37.559h45.666c8.612 0 15.594-6.982 15.594-15.594v-40.979c0-8.612-6.982-15.594-15.594-15.594s-15.594 6.982-15.594 15.594v25.385h-45.666c-8.612 0-15.594 6.982-15.594 15.594v68.746c0 8.612 6.982 15.594 15.594 15.594h101.715c8.612 0 15.594-6.982 15.594-15.594s-6.982-15.593-15.594-15.593z" fill="#46f8ff"/><path id="XMLID_2032_" d="m237.99 372.569v25.385h-45.666c-8.612 0-15.594 6.982-15.594 15.594v68.746c0 8.612 6.982 15.594 15.594 15.594h78.603v-31.187h-63.01v-37.559h45.666c.799 0 1.578-.079 2.344-.195v-71.776c-.766-.116-1.545-.195-2.344-.195-8.611 0-15.593 6.981-15.593 15.593z" fill="#bdfdff"/><g id="XMLID_1971_"><g id="XMLID_2025_"><path id="XMLID_2031_" d="m475.212 217.505c-8.612 0-15.594 6.982-15.594 15.594v66.181h-27.165v-44.195c0-8.612-6.982-15.594-15.594-15.594h-36.625c-8.612 0-15.594 6.982-15.594 15.594s6.982 15.594 15.594 15.594h21.032v44.195c0 8.612 6.982 15.594 15.594 15.594h58.352c8.612 0 15.594-6.982 15.594-15.594v-81.775c0-8.612-6.982-15.594-15.594-15.594z" fill="#46f8ff"/><path id="XMLID_2030_" d="m35.142 350.046h62.956c8.612 0 15.594-6.982 15.594-15.594v-62.734h23.192c8.612 0 15.594-6.982 15.594-15.594s-6.982-15.594-15.594-15.594h-38.786c-8.612 0-15.594 6.982-15.594 15.594v62.734h-31.768v-75.683c0-8.612-6.982-15.594-15.594-15.594s-15.594 6.982-15.594 15.594v91.276c.001 8.614 6.982 15.595 15.594 15.595z" fill="#bdfdff"/><path id="XMLID_2029_" d="m431.232 409.269c-6.084-6.092-15.955-6.102-22.047-.022l-37.52 37.425-15.417-15.34 36.413-36.353c2.93-2.925 4.577-6.896 4.577-11.036s-1.648-8.11-4.578-11.035l-31.71-31.65c-6.097-6.085-15.969-6.076-22.052.02-6.084 6.095-6.075 15.969.02 22.052l20.653 20.615-36.43 36.371c-2.933 2.928-4.58 6.903-4.577 11.048.003 4.144 1.657 8.118 4.595 11.04l37.519 37.333c6.087 6.059 15.929 6.053 22.012-.013l37.483-37.39 42.35 42.417c3.047 3.051 7.04 4.576 11.035 4.576 3.987 0 7.973-1.52 11.018-4.558 6.094-6.085 6.101-15.959.017-22.053z" fill="#46f8ff"/><path id="XMLID_2028_" d="m69.599 83.915-29.521 29.386c-2.938 2.925-4.591 6.898-4.593 11.044-.002 4.145 1.647 8.121 4.582 11.048l39.246 39.14c6.089 6.07 15.943 6.07 22.026-.003l24.197-24.144 34.514 34.438c3.044 3.037 7.028 4.555 11.014 4.555 3.996 0 7.993-1.527 11.038-4.58 6.083-6.096 6.072-15.969-.024-22.052l-45.528-45.427c-6.086-6.074-15.942-6.073-22.028 0l-24.2 24.147-17.15-17.104 29.506-29.371c2.936-2.922 4.588-6.892 4.593-11.034.005-4.141-1.639-8.116-4.567-11.043l-49.582-49.58c-6.089-6.091-15.963-6.089-22.052 0-6.09 6.09-6.09 15.963 0 22.052z" fill="#bdfdff"/><path id="XMLID_2027_" d="m147.955 339.52-41.069 40.992c-2.932 2.926-4.579 6.899-4.578 11.041.001 4.143 1.652 8.115 4.586 11.039l16.671 16.616-17.142 17.087-15.451-15.383c-6.092-6.066-15.946-6.055-22.028.023l-40.721 40.718c-6.089 6.09-6.09 15.963-.001 22.053 3.046 3.045 7.036 4.567 11.027 4.567s7.982-1.523 11.026-4.566l29.719-29.717 15.434 15.366c6.087 6.061 15.928 6.057 22.011-.006l39.223-39.097c2.935-2.926 4.585-6.9 4.585-11.044 0-4.145-1.65-8.119-4.586-11.044l-16.678-16.624 30.003-29.947c6.095-6.083 6.104-15.957.02-22.052-6.082-6.097-15.956-6.107-22.051-.022z" fill="#bdfdff"/><path id="XMLID_2026_" d="m338.623 186.073c3.985 0 7.969-1.518 11.013-4.554l21.184-21.134 15.373 15.326c6.085 6.067 15.934 6.066 22.019-.001l40.894-40.777c6.099-6.081 6.114-15.954.033-22.052-.208-.209-.431-.393-.648-.588-.192-.214-.373-.434-.578-.64l-18.125-18.123 35.769-35.768c6.09-6.089 6.09-15.962 0-22.052-6.089-6.09-15.963-6.09-22.052 0l-46.796 46.794c-2.925 2.924-4.567 6.89-4.567 11.026s1.643 8.102 4.567 11.027l19.319 19.317-18.826 18.772-15.376-15.329c-6.086-6.067-15.938-6.067-22.022.004l-32.194 32.119c-6.097 6.083-6.108 15.956-.026 22.052 3.046 3.054 7.042 4.581 11.039 4.581z" fill="#46f8ff"/></g><g id="XMLID_2022_"><path id="XMLID_2023_" d="m193.162 62.285c-17.197 0-31.187-13.97-31.187-31.142 0-17.173 13.99-31.143 31.187-31.143 17.196 0 31.187 13.97 31.187 31.143 0 17.171-13.991 31.142-31.187 31.142z" fill="#f05ca5"/></g><g id="XMLID_2019_"><path id="XMLID_2020_" d="m476.307 243.443c-17.197 0-31.187-13.97-31.187-31.142s13.991-31.142 31.187-31.142 31.187 13.97 31.187 31.142-13.991 31.142-31.187 31.142z" fill="#eb1d83"/></g><g id="XMLID_2009_"><path id="XMLID_2010_" d="m476.306 507.131c-17.196 0-31.187-13.97-31.187-31.142s13.991-31.142 31.187-31.142c17.197 0 31.187 13.97 31.187 31.142s-13.99 31.142-31.187 31.142z" fill="#eb1d83"/></g><g id="XMLID_2006_"><path id="XMLID_2007_" d="m291.509 512c-17.197 0-31.187-13.97-31.187-31.142s13.991-31.142 31.187-31.142 31.187 13.97 31.187 31.142-13.991 31.142-31.187 31.142z" fill="#eb1d83"/></g><g id="XMLID_1999_"><path id="XMLID_2000_" d="m35.854 506.91c-17.197 0-31.187-13.97-31.187-31.143 0-17.172 13.991-31.142 31.187-31.142s31.187 13.97 31.187 31.142-13.991 31.143-31.187 31.143z" fill="#f05ca5"/></g><g id="XMLID_1981_"><path id="XMLID_1982_" d="m35.694 276.293c-17.196 0-31.187-13.97-31.187-31.142s13.991-31.142 31.187-31.142 31.187 13.97 31.187 31.142-13.991 31.142-31.187 31.142z" fill="#f05ca5"/></g><g id="XMLID_1978_"><path id="XMLID_1979_" d="m40.901 62.285c-17.196 0-31.187-13.97-31.187-31.142s13.991-31.143 31.187-31.143 31.187 13.97 31.187 31.142-13.99 31.143-31.187 31.143z" fill="#f05ca5"/></g><g id="XMLID_1975_"><path id="XMLID_1976_" d="m470.588 63.324c-17.196 0-31.187-13.97-31.187-31.143 0-17.172 13.991-31.142 31.187-31.142 17.197 0 31.187 13.97 31.187 31.142.001 17.173-13.99 31.143-31.187 31.143z" fill="#eb1d83"/></g></g><g id="XMLID_4238_"><path id="XMLID_1967_" d="m386.898 258.334c0-17.531-7.921-33.524-20.908-43.495.054-1.005.08-2.012.08-3.02 0-24.233-15.25-44.924-36.376-51.59-6.857-18.177-23.781-30.819-43.057-30.819-11.671 0-22.533 4.621-30.839 12.267-8.242-7.647-19.015-12.267-30.582-12.267-19.275 0-36.199 12.641-43.056 30.817-21.125 6.667-36.376 27.358-36.376 51.591 0 1.008.026 2.015.08 3.019-12.986 9.971-20.909 25.967-20.909 43.496 0 13.194 4.553 25.712 12.571 35.403-2.121 5.98-3.215 12.342-3.215 18.852 0 28.007 20.365 51.088 46.287 53.616 9.921 10.282 23.433 16.232 37.486 16.232 14.771 0 28.159-6.365 37.842-16.634 9.682 10.269 23.07 16.634 37.841 16.634 14.052 0 27.566-5.95 37.487-16.232 25.921-2.528 46.287-25.608 46.287-53.616 0-6.51-1.094-12.872-3.215-18.852 8.02-9.69 12.572-22.209 12.572-35.402z" fill="#eb1d83"/></g><g id="XMLID_4237_"><path id="XMLID_1966_" d="m255.799 141.677c-8.242-7.647-19.015-12.267-30.582-12.267-19.275 0-36.199 12.641-43.056 30.817-21.125 6.667-36.376 27.358-36.376 51.591 0 1.008.026 2.015.08 3.019-12.986 9.971-20.909 25.967-20.909 43.496 0 13.194 4.553 25.712 12.571 35.403-2.121 5.98-3.215 12.342-3.215 18.852 0 28.007 20.365 51.088 46.287 53.616 9.921 10.282 23.433 16.232 37.486 16.232 14.77 0 28.159-6.365 37.841-16.634v-224.24c-.04.04-.085.076-.127.115z" fill="#f05ca5"/></g><path id="XMLID_1965_" d="m218.086 351.25c-6.771 0-13.103-3.47-17.373-9.52-2.936-4.158-7.698-6.601-12.738-6.601-.414 0-.831.016-1.249.05-.57.046-1.025.068-1.396.068-10.935 0-19.831-10.164-19.831-22.658 0-4.962 1.393-9.681 4.027-13.643 4.666-7.017 2.914-16.471-3.957-21.349-5.902-4.191-9.426-11.393-9.426-19.263 0-9.368 5.181-17.893 12.89-21.213 7.157-3.081 10.941-10.974 8.862-18.484-.612-2.211-.923-4.505-.923-6.819 0-12.049 8.241-21.986 18.763-22.622 7.483-.452 13.586-6.165 14.53-13.603 1.084-8.55 7.512-14.997 14.952-14.997 7.311 0 13.726 6.315 14.919 14.688.051.363.117.72.193 1.073v146.247c-.047.637-.061 1.279-.028 1.924.011.223.011.45.018.675.001.096.003.195.004.283l.006.49c0 .073.005.146.005.219-.104 13.836-10.041 25.055-22.248 25.055z" fill="#f37bb6"/><path id="XMLID_1964_" d="m346.285 277.597c-6.871 4.878-8.623 14.332-3.957 21.349 2.635 3.963 4.028 8.681 4.028 13.643 0 12.494-8.896 22.658-19.831 22.658-.371 0-.826-.022-1.396-.068-5.479-.44-10.809 2.05-13.985 6.551-4.271 6.05-10.604 9.52-17.375 9.52-12.205 0-22.143-11.219-22.247-25.053 0-.073.005-.146.005-.219 0-.48-.006-.962-.018-1.453.012-.256.018-.512.018-.77v-149.443c1.544-7.884 7.889-13.715 15.111-13.715 7.44 0 13.868 6.447 14.952 14.996.943 7.437 7.046 13.152 14.53 13.604 10.522.636 18.764 10.572 18.764 22.622 0 2.314-.311 4.606-.923 6.815-2.082 7.51 1.701 15.406 8.861 18.488 7.71 3.32 12.89 11.843 12.89 21.213-.001 7.87-3.524 15.071-9.427 19.262z" fill="#f05ca5"/></g></g></svg>