<svg height="512pt" viewBox="0 0 512 512.07993" width="512pt" xmlns="http://www.w3.org/2000/svg"><path d="m503.507812 119.480469v324.265625c0 18.851562-15.28125 34.136718-34.132812 34.136718h-426.667969c-18.851562 0-34.132812-15.285156-34.132812-34.136718v-324.265625zm0 0" fill="#9d9d9d"/><path d="m477.90625 119.480469-17.066406 315.734375c0 18.859375 1.792968 42.667968-17.066406 42.667968h-401.066407c-18.851562 0-34.132812-15.285156-34.132812-34.136718v-324.265625zm0 0" fill="#ced7db"/><path d="m503.507812 68.28125v68.265625h-494.933593v-68.265625c0-18.851562 15.28125-34.132812 34.132812-34.132812h426.667969c18.851562 0 34.132812 15.28125 34.132812 34.132812zm0 0" fill="#00828e"/><path d="m477.90625 68.28125v68.265625h-469.332031v-68.265625c0-18.851562 15.28125-34.132812 34.132812-34.132812h401.066407c18.851562 0 34.132812 15.28125 34.132812 34.132812zm0 0" fill="#00bbd3"/><path d="m76.839844 85.347656c0 9.425782-7.640625 17.066406-17.066406 17.066406-9.425782 0-17.066407-7.640624-17.066407-17.066406 0-9.425781 7.640625-17.066406 17.066407-17.066406 9.425781 0 17.066406 7.640625 17.066406 17.066406zm0 0" fill="#f34335"/><path d="m145.105469 85.347656c0 9.425782-7.640625 17.066406-17.066407 17.066406-9.425781 0-17.066406-7.640624-17.066406-17.066406 0-9.425781 7.640625-17.066406 17.066406-17.066406 9.425782 0 17.066407 7.640625 17.066407 17.066406zm0 0" fill="#ffea3a"/><path d="m213.375 85.347656c0 9.425782-7.644531 17.066406-17.070312 17.066406-9.421876 0-17.066407-7.640624-17.066407-17.066406 0-9.425781 7.644531-17.066406 17.066407-17.066406 9.425781 0 17.070312 7.640625 17.070312 17.066406zm0 0" fill="#4cae50"/><path d="m366.972656 93.882812h-85.332031c-4.714844 0-8.535156-3.820312-8.535156-8.535156 0-4.710937 3.820312-8.53125 8.535156-8.53125h85.332031c4.714844 0 8.535156 3.820313 8.535156 8.53125 0 4.714844-3.820312 8.535156-8.535156 8.535156zm0 0" fill="#955ba5"/><path d="m318.246094 429.15625-252.414063-252.417969c-2.429687-2.449219-6.097656-3.195312-9.292969-1.886719-3.191406 1.308594-5.285156 4.410157-5.300781 7.863282v10.066406l241.410157 241.410156c2.503906 2.515625 3.214843 6.304688 1.792968 9.554688h17.832032c3.453124-.011719 6.554687-2.105469 7.863281-5.296875 1.308593-3.195313.5625-6.863281-1.890625-9.292969zm0 0" fill="#fcd734"/><path d="m292.648438 434.191406-241.410157-241.410156v242.433594c0 4.710937 3.820313 8.53125 8.535157 8.53125h234.667968c1.421875-3.25.710938-7.039063-1.792968-9.554688zm-198.742188-33.109375v-136.535156l136.535156 136.535156zm0 0" fill="#ffea3a"/><path d="m401.105469 68.28125h68.269531v68.265625h-68.269531zm0 0" fill="#37474f"/><path d="m401.105469 68.28125h42.667969v68.265625h-42.667969zm0 0" fill="#9d9d9d"/><g fill="#3f5c6c"><path d="m204.839844 196.28125h34.132812c4.714844 0 8.535156-3.820312 8.535156-8.535156 0-4.710938-3.820312-8.53125-8.535156-8.53125h-34.132812c-4.710938 0-8.535156 3.820312-8.535156 8.53125 0 4.714844 3.824218 8.535156 8.535156 8.535156zm0 0"/><path d="m273.105469 196.28125h93.867187c4.714844 0 8.535156-3.820312 8.535156-8.535156 0-4.710938-3.820312-8.53125-8.535156-8.53125h-93.867187c-4.710938 0-8.53125 3.820312-8.53125 8.53125 0 4.714844 3.820312 8.535156 8.53125 8.535156zm0 0"/><path d="m366.972656 247.480469h-34.132812c-4.710938 0-8.535156 3.820312-8.535156 8.535156 0 4.710937 3.824218 8.53125 8.535156 8.53125h34.132812c4.714844 0 8.535156-3.820313 8.535156-8.53125 0-4.714844-3.820312-8.535156-8.535156-8.535156zm0 0"/><path d="m298.707031 247.480469h-93.867187c-4.710938 0-8.535156 3.820312-8.535156 8.535156 0 4.710937 3.824218 8.53125 8.535156 8.53125h93.867187c4.710938 0 8.53125-3.820313 8.53125-8.53125 0-4.714844-3.820312-8.535156-8.53125-8.535156zm0 0"/><path d="m204.839844 230.414062h59.734375c4.710937 0 8.53125-3.820312 8.53125-8.53125 0-4.714843-3.820313-8.535156-8.53125-8.535156h-59.734375c-4.710938 0-8.535156 3.820313-8.535156 8.535156 0 4.710938 3.824218 8.53125 8.535156 8.53125zm0 0"/><path d="m366.972656 213.347656h-68.265625c-4.714843 0-8.535156 3.820313-8.535156 8.535156 0 4.710938 3.820313 8.53125 8.535156 8.53125h68.265625c4.714844 0 8.535156-3.820312 8.535156-8.53125 0-4.714843-3.820312-8.535156-8.535156-8.535156zm0 0"/></g><path d="m469.375 119.480469v307.199219c-.007812-6.09375-3.261719-11.722657-8.542969-14.765626-5.277343-3.042968-11.78125-3.042968-17.058593.003907-1.625.929687-3.070313 2.144531-4.265626 3.585937-2.742187 3.078125-4.261718 7.054688-4.269531 11.175782-.023437-7.761719-5.28125-14.527344-12.796875-16.46875-1.386718-.410157-2.824218-.613282-4.269531-.597657-9.085937.105469-16.542969 7.226563-17.066406 16.300781v-306.433593zm0 0" fill="#fcd734"/><path d="m443.773438 119.480469v307.199219c-.097657-9.382813-7.679688-16.96875-17.066407-17.066407-1.445312-.015625-2.882812.1875-4.265625.597657-7.515625 1.941406-12.777344 8.707031-12.800781 16.46875-.007813-4.121094-1.523437-8.097657-4.265625-11.175782-1.199219-1.441406-2.644531-2.65625-4.269531-3.585937v-292.4375zm0 0" fill="#ffea3a"/><path d="m469.375 42.679688v42.667968h-68.269531v-42.667968c.015625-9.050782 3.605469-17.726563 9.984375-24.148438 3.261718-3.191406 7.117187-5.714844 11.351562-7.421875 4.042969-1.722656 8.402344-2.59375 12.796875-2.5625 18.851563 0 34.136719 15.28125 34.136719 34.132813zm0 0" fill="#c42828"/><path d="m443.773438 42.679688v42.667968h-42.667969v-42.667968c.015625-9.050782 3.605469-17.726563 9.984375-24.148438 3.261718-3.191406 7.117187-5.714844 11.351562-7.421875 12.902344 5.164063 21.355469 17.671875 21.332032 31.570313zm0 0" fill="#f34335"/><path d="m469.375 426.679688-26.371094 70.742187c-.875 3.578125-4.082031 6.089844-7.765625 6.089844-3.679687 0-6.886719-2.511719-7.761719-6.089844l-5.035156-13.480469-21.335937-57.261718c.097656-9.382813 7.683593-16.96875 17.066406-17.066407 1.445313-.015625 2.882813.1875 4.269531.597657 7.515625 1.941406 12.773438 8.707031 12.796875 16.46875.097657-9.382813 7.683594-16.96875 17.066407-17.066407 9.414062.03125 17.039062 7.652344 17.070312 17.066407zm0 0" fill="#ffdfb1"/><path d="m443.773438 426.679688-21.332032 57.261718-21.335937-57.261718c.007812-4.121094 1.527343-8.097657 4.269531-11.175782 2.523438 2.875 4.023438 6.503906 4.265625 10.324219.421875-7.433594 5.59375-13.746094 12.800781-15.617187 1.382813-.410157 2.820313-.613282 4.265625-.597657 9.386719.097657 16.96875 7.683594 17.066407 17.066407zm0 0" fill="#ffebb2"/><path d="m435.238281 384.015625c-4.710937 0-8.53125-3.820313-8.53125-8.535156v-221.867188c0-4.710937 3.820313-8.53125 8.53125-8.53125 4.714844 0 8.535157 3.820313 8.535157 8.53125v221.867188c0 4.714843-3.820313 8.535156-8.535157 8.535156zm0 0" fill="#f0c419"/><path d="m474.5625 26.117188c-6.605469-15.730469-21.957031-26.007813-39.019531-26.117188s-32.542969 9.96875-39.351563 25.613281h-353.484375c-23.554687.03125-42.6406248 19.117188-42.6679685 42.667969v375.464844c.0273437 23.554687 19.1132815 42.640625 42.6679685 42.667968h371.558594l5.195313 13.953126c2.109374 6.957031 8.519531 11.710937 15.789062 11.710937 7.265625 0 13.679688-4.753906 15.785156-11.710937l5.179688-13.953126h13.160156c23.550781-.027343 42.636719-19.113281 42.664062-42.667968v-375.464844c-.054687-21.5-16.132812-39.585938-37.476562-42.164062zm20.410156 42.164062v59.734375h-17.066406v-83.78125c10.199219 3.605469 17.03125 13.230469 17.066406 24.046875zm-59.734375 339.457031c-6.871093-6.421875-16.785156-8.402343-25.597656-5.121093v-274.601563h51.199219v274.617187c-8.8125-3.28125-18.726563-1.296874-25.601563 5.121094zm25.601563-296.789062h-51.199219v-17.066407h51.199219zm-25.601563-93.867188c14.140625 0 25.601563 11.460938 25.601563 25.597657v34.136718h-51.199219v-34.136718c0-14.136719 11.460937-25.597657 25.597656-25.597657zm-392.53125 25.597657h349.867188v85.335937h-375.46875v-59.734375c0-14.136719 11.460937-25.601562 25.601562-25.601562zm0 426.667968c-14.140625 0-25.601562-11.460937-25.601562-25.601562v-298.664063h375.46875v281.597657c.050781.503906.152343 1.003906.296875 1.488281.039062.5.117187 1 .238281 1.492187l14.824219 39.6875zm392.480469 24.328125-7.074219-18.96875-.082031-.238281-18.1875-48.785156c.460938-4.261719 4.042969-7.503906 8.328125-7.535156 4.714844 0 8.535156 3.820312 8.535156 8.53125 0 4.714843 3.820313 8.535156 8.53125 8.535156 4.714844 0 8.535157-3.820313 8.535157-8.535156 0-4.710938 3.820312-8.53125 8.53125-8.53125 4.285156.035156 7.863281 3.269531 8.332031 7.527343zm34.1875-24.328125h-6.828125l14.789063-39.6875c.121093-.492187.199218-.992187.238281-1.492187.15625-.484375.269531-.980469.332031-1.488281v-281.597657h17.066406v298.664063c0 6.792968-2.695312 13.304687-7.496094 18.105468-4.800781 4.800782-11.3125 7.496094-18.101562 7.496094zm0 0"/><path d="m59.773438 110.949219c14.136718 0 25.601562-11.460938 25.601562-25.601563 0-14.136718-11.464844-25.601562-25.601562-25.601562-14.136719 0-25.601563 11.464844-25.601563 25.601562 0 14.140625 11.464844 25.601563 25.601563 25.601563zm0-34.132813c4.710937 0 8.53125 3.820313 8.53125 8.53125 0 4.714844-3.820313 8.535156-8.53125 8.535156-4.714844 0-8.535157-3.820312-8.535157-8.535156 0-4.710937 3.820313-8.53125 8.535157-8.53125zm0 0"/><path d="m128.039062 110.949219c14.140626 0 25.601563-11.460938 25.601563-25.601563 0-14.136718-11.460937-25.601562-25.601563-25.601562-14.136718 0-25.597656 11.464844-25.597656 25.601562 0 14.140625 11.460938 25.601563 25.597656 25.601563zm0-34.132813c4.714844 0 8.535157 3.820313 8.535157 8.53125 0 4.714844-3.820313 8.535156-8.535157 8.535156-4.710937 0-8.53125-3.820312-8.53125-8.535156 0-4.710937 3.820313-8.53125 8.53125-8.53125zm0 0"/><path d="m196.304688 110.949219c14.140624 0 25.601562-11.460938 25.601562-25.601563 0-14.136718-11.460938-25.601562-25.601562-25.601562-14.136719 0-25.597657 11.464844-25.597657 25.601562 0 14.140625 11.460938 25.601563 25.597657 25.601563zm0-34.132813c4.714843 0 8.535156 3.820313 8.535156 8.53125 0 4.714844-3.820313 8.535156-8.535156 8.535156-4.710938 0-8.53125-3.820312-8.53125-8.535156 0-4.710937 3.820312-8.53125 8.53125-8.53125zm0 0"/><path d="m281.640625 93.882812h85.332031c4.714844 0 8.535156-3.820312 8.535156-8.535156 0-4.710937-3.820312-8.53125-8.535156-8.53125h-85.332031c-4.714844 0-8.535156 3.820313-8.535156 8.53125 0 4.714844 3.820312 8.535156 8.535156 8.535156zm0 0"/><path d="m71.839844 170.679688c-4.878906-4.875-12.214844-6.335938-18.589844-3.699219s-10.535156 8.851562-10.542969 15.75v252.484375c0 9.425781 7.640625 17.066406 17.066407 17.066406h252.46875c6.910156.007812 13.148437-4.152344 15.789062-10.539062 2.644531-6.390626 1.171875-13.742188-3.726562-18.621094zm-12.066406 264.535156v-252.484375l252.46875 252.484375zm0 0"/><path d="m93.90625 409.613281h136.535156c3.449219 0 6.558594-2.078125 7.878906-5.265625 1.320313-3.1875.59375-6.859375-1.847656-9.300781l-136.53125-136.53125c-2.441406-2.441406-6.113281-3.171875-9.300781-1.851563-3.1875 1.324219-5.265625 4.433594-5.265625 7.882813v136.535156c0 4.710938 3.820312 8.53125 8.53125 8.53125zm8.535156-124.464843 107.398438 107.398437h-107.398438zm0 0"/><path d="m435.238281 145.082031c-4.710937 0-8.53125 3.820313-8.53125 8.53125v221.867188c0 4.714843 3.820313 8.535156 8.53125 8.535156 4.714844 0 8.535157-3.820313 8.535157-8.535156v-221.867188c0-4.710937-3.820313-8.53125-8.535157-8.53125zm0 0"/><path d="m204.839844 196.28125h34.132812c4.714844 0 8.535156-3.820312 8.535156-8.535156 0-4.710938-3.820312-8.53125-8.535156-8.53125h-34.132812c-4.710938 0-8.535156 3.820312-8.535156 8.53125 0 4.714844 3.824218 8.535156 8.535156 8.535156zm0 0"/><path d="m366.972656 179.214844h-93.867187c-4.710938 0-8.53125 3.820312-8.53125 8.53125 0 4.714844 3.820312 8.535156 8.53125 8.535156h93.867187c4.714844 0 8.535156-3.820312 8.535156-8.535156 0-4.710938-3.820312-8.53125-8.535156-8.53125zm0 0"/><path d="m366.972656 247.480469h-34.132812c-4.710938 0-8.535156 3.820312-8.535156 8.535156 0 4.710937 3.824218 8.53125 8.535156 8.53125h34.132812c4.714844 0 8.535156-3.820313 8.535156-8.53125 0-4.714844-3.820312-8.535156-8.535156-8.535156zm0 0"/><path d="m204.839844 264.546875h93.867187c4.710938 0 8.53125-3.820313 8.53125-8.53125 0-4.714844-3.820312-8.535156-8.53125-8.535156h-93.867187c-4.710938 0-8.535156 3.820312-8.535156 8.535156 0 4.710937 3.824218 8.53125 8.535156 8.53125zm0 0"/><path d="m204.839844 230.414062h59.734375c4.710937 0 8.53125-3.820312 8.53125-8.53125 0-4.714843-3.820313-8.535156-8.53125-8.535156h-59.734375c-4.710938 0-8.535156 3.820313-8.535156 8.535156 0 4.710938 3.824218 8.53125 8.535156 8.53125zm0 0"/><path d="m366.972656 213.347656h-68.265625c-4.714843 0-8.535156 3.820313-8.535156 8.535156 0 4.710938 3.820313 8.53125 8.535156 8.53125h68.265625c4.714844 0 8.535156-3.820312 8.535156-8.53125 0-4.714843-3.820312-8.535156-8.535156-8.535156zm0 0"/></svg>