<svg id="Capa_1" enable-background="new 0 0 512 512" height="512" viewBox="0 0 512 512" width="512" xmlns="http://www.w3.org/2000/svg"><g><g><path d="m393.86 415.202h-360.373c-13.884 0-25.14-11.256-25.14-25.14v-285.019c0-13.884 11.256-25.14 25.14-25.14h360.373c13.884 0 25.14 11.256 25.14 25.14v285.018c0 13.885-11.256 25.141-25.14 25.141z" fill="#eceaec"/><path d="m393.86 38.004h-368.72c-2.938 0-5.758.504-8.378 1.429l-8.982 57.132 411.22-8.282v-25.14c0-13.884-11.256-25.139-25.14-25.139z" fill="#ffa95f"/><path d="m25.14 406.723c-4.628 0-8.38-3.752-8.38-8.38v-293.3h-16.76v293.3c0 13.884 11.256 25.14 25.14 25.14h368.72c10.93 0 20.137-7.018 23.6-16.76z" fill="#dad8db"/><path d="m16.76 71.523v-32.095c-9.726 3.465-16.76 12.799-16.76 23.715v41.9h419v-16.76h-385.48c-9.256 0-16.76-7.503-16.76-16.76z" fill="#ff8b5a"/><path d="m58.66 54.763c-9.256 0-16.76-7.504-16.76-16.76v-16.76c0-9.256 7.504-16.76 16.76-16.76 9.256 0 16.76 7.504 16.76 16.76v16.76c0 9.257-7.504 16.76-16.76 16.76z" fill="#eceaec"/><path d="m58.66 71.523c-9.256 0-16.76-7.504-16.76-16.76v-16.76h33.52v16.76c0 9.257-7.504 16.76-16.76 16.76z" fill="#dad8db"/><path d="m360.34 54.763c-9.256 0-16.76-7.504-16.76-16.76v-16.76c0-9.256 7.504-16.76 16.76-16.76 9.256 0 16.76 7.504 16.76 16.76v16.76c0 9.257-7.504 16.76-16.76 16.76z" fill="#eceaec"/><path d="m360.34 71.523c-9.256 0-16.76-7.504-16.76-16.76v-16.76h33.52v16.76c0 9.257-7.504 16.76-16.76 16.76z" fill="#dad8db"/></g><path d="m503.032 398.526c0 27.726-10.353 53.034-27.404 72.269-19.967 22.524-49.119 34.205-81.586 34.205-60.194 0-105.542-46.281-105.542-106.474 0-32.463 10.744-61.612 33.264-81.578 19.236-17.056 44.548-27.412 72.278-27.412 60.193 0 108.99 48.797 108.99 108.99z" fill="#ff8086"/><circle cx="394.042" cy="398.526" fill="#fff" r="83.839"/><circle cx="394.042" cy="398.526" fill="#ff8086" r="58.687"/><circle cx="394.042" cy="398.526" fill="#fff" r="33.535"/><path d="m417.009 383.943c-2.145 0-4.29-.819-5.928-2.456-3.275-3.275-3.275-8.58 0-11.855l52.487-52.488c3.275-3.275 8.58-3.275 11.855 0s3.275 8.58 0 11.855l-52.487 52.488c-1.636 1.637-3.781 2.456-5.927 2.456z" fill="#c8c5c9"/><path d="m494.648 297.92.366-12.436c.127-4.312-5.083-6.56-8.133-3.51l-21.576 21.576c-6.548 6.548-6.548 17.165 0 23.713 6.548 6.548 17.165 6.548 23.713 0l21.576-21.576c3.05-3.05.802-8.26-3.51-8.134z" fill="#e5646e"/><path d="m243.132 188.93h-67.071c-4.63 0-8.384-3.754-8.384-8.384v-16.768c0-4.63 3.754-8.384 8.384-8.384h67.071c4.63 0 8.384 3.754 8.384 8.384v16.768c0 4.63-3.754 8.384-8.384 8.384z" fill="#ff8086"/><path d="m360.506 188.93h-67.071c-4.63 0-8.384-3.754-8.384-8.384v-16.768c0-4.63 3.754-8.384 8.384-8.384h67.071c4.63 0 8.384 3.754 8.384 8.384v16.768c0 4.63-3.753 8.384-8.384 8.384z" fill="#ffc269"/><path d="m125.758 188.93h-67.071c-4.63 0-8.384-3.754-8.384-8.384v-16.768c0-4.63 3.754-8.384 8.384-8.384h67.071c4.63 0 8.384 3.754 8.384 8.384v16.768c0 4.63-3.754 8.384-8.384 8.384z" fill="#ff8b5a"/><g fill="#fff"><path d="m125.758 230.849h-67.071c-4.634 0-8.384-3.754-8.384-8.384s3.75-8.384 8.384-8.384h67.071c4.634 0 8.384 3.754 8.384 8.384s-3.75 8.384-8.384 8.384z"/><path d="m125.758 264.384h-67.071c-4.634 0-8.384-3.754-8.384-8.384s3.75-8.384 8.384-8.384h67.071c4.634 0 8.384 3.754 8.384 8.384s-3.75 8.384-8.384 8.384z"/><path d="m125.758 297.92h-67.071c-4.634 0-8.384-3.754-8.384-8.384s3.75-8.384 8.384-8.384h67.071c4.634 0 8.384 3.754 8.384 8.384s-3.75 8.384-8.384 8.384z"/><path d="m243.132 230.849h-67.071c-4.634 0-8.384-3.754-8.384-8.384s3.75-8.384 8.384-8.384h67.071c4.634 0 8.384 3.754 8.384 8.384s-3.75 8.384-8.384 8.384z"/><path d="m243.132 264.384h-67.071c-4.634 0-8.384-3.754-8.384-8.384s3.75-8.384 8.384-8.384h67.071c4.634 0 8.384 3.754 8.384 8.384s-3.75 8.384-8.384 8.384z"/><path d="m243.132 297.92h-67.071c-4.634 0-8.384-3.754-8.384-8.384s3.75-8.384 8.384-8.384h67.071c4.634 0 8.384 3.754 8.384 8.384s-3.75 8.384-8.384 8.384z"/><path d="m243.132 331.455h-67.071c-4.634 0-8.384-3.754-8.384-8.384s3.75-8.384 8.384-8.384h67.071c4.634 0 8.384 3.754 8.384 8.384s-3.75 8.384-8.384 8.384z"/><path d="m243.132 364.991h-67.071c-4.634 0-8.384-3.754-8.384-8.384s3.75-8.384 8.384-8.384h67.071c4.634 0 8.384 3.754 8.384 8.384s-3.75 8.384-8.384 8.384z"/><path d="m360.506 230.849h-67.071c-4.634 0-8.384-3.754-8.384-8.384s3.75-8.384 8.384-8.384h67.071c4.634 0 8.384 3.754 8.384 8.384s-3.75 8.384-8.384 8.384z"/><path d="m360.506 264.384h-67.071c-4.634 0-8.384-3.754-8.384-8.384s3.75-8.384 8.384-8.384h67.071c4.634 0 8.384 3.754 8.384 8.384s-3.75 8.384-8.384 8.384z"/></g><path d="m411.082 369.631-22.968 22.967c-3.275 3.275-3.275 8.58 0 11.855 1.637 1.637 3.783 2.456 5.928 2.456s4.29-.819 5.928-2.456l22.968-22.967c-2.893-4.902-6.954-8.963-11.856-11.855z" fill="#9b959d"/><path d="m403.343 498.216c-60.194 0-108.99-48.797-108.99-108.99 0-27.729 10.356-53.045 27.409-72.28-22.521 19.967-36.71 49.116-36.71 81.581 0 60.194 48.797 108.99 108.99 108.99 32.465 0 61.619-14.199 81.586-36.721-19.235 17.053-44.557 27.42-72.285 27.42z" fill="#e5646e"/></g></svg>