<svg height="511pt" viewBox="1 -75 511.99999 511" width="511pt" xmlns="http://www.w3.org/2000/svg"><path d="m459.035156.5h-406.070312c-19.5 0-35.308594 15.808594-35.308594 35.308594v264.828125h185.378906l6.816406 20.445312c1.199219 3.609375 4.574219 6.039063 8.375 6.039063h75.546876c3.800781 0 7.175781-2.429688 8.378906-6.039063l6.8125-20.445312h185.378906v-264.828125c0-19.5-15.808594-35.308594-35.308594-35.308594zm0 0" fill="#acabb1"/><path d="m61.792969 35.808594h388.414062c4.875 0 8.828125 3.953125 8.828125 8.828125v291.3125h-406.070312v-291.3125c0-4.875 3.953125-8.828125 8.828125-8.828125zm0 0" fill="#ffeb99"/><path d="m308.964844 300.636719-6.8125 20.445312c-1.203125 3.609375-4.578125 6.039063-8.378906 6.039063h-75.546876c-3.800781 0-7.175781-2.429688-8.378906-6.039063l-6.8125-20.445312h-203.035156v26.484375c0 19.5 15.808594 35.308594 35.308594 35.308594h441.382812c19.5 0 35.308594-15.808594 35.308594-35.308594v-26.484375zm0 0" fill="#898890"/><g fill="#ff7956"><path d="m176.550781 88.777344h-52.964843c-9.75 0-17.65625 7.902344-17.65625 17.652344v52.964843c0 9.753907 7.90625 17.65625 17.65625 17.65625h52.964843v52.964844h-52.964843v-8.824219h-17.65625v8.824219c0 9.753906 7.90625 17.65625 17.65625 17.65625h52.964843c9.75 0 17.65625-7.902344 17.65625-17.65625v-52.964844c0-9.75-7.90625-17.65625-17.65625-17.65625h-52.964843v-52.964843h52.964843v8.828124h17.65625v-8.828124c0-9.75-7.90625-17.652344-17.65625-17.652344zm0 0"/><path d="m211.863281 106.429688v123.585937c0 9.753906 7.902344 17.65625 17.652344 17.65625h70.621094v-17.65625h-70.621094v-52.964844h70.621094v-17.65625h-70.621094v-52.964843h70.621094v-17.652344h-70.621094c-9.75 0-17.652344 7.902344-17.652344 17.652344zm0 0"/><path d="m388.414062 88.777344h-52.964843c-9.75 0-17.65625 7.902344-17.65625 17.652344v123.585937c0 9.753906 7.90625 17.65625 17.65625 17.65625h52.964843c9.75 0 17.65625-7.902344 17.65625-17.65625v-123.585937c0-9.75-7.90625-17.652344-17.65625-17.652344zm-52.964843 141.238281v-123.585937h52.964843v123.585937zm0 0"/></g></svg>